<svg width="16" height="12" viewBox="0 0 16 12" fill="none" xmlns="http://www.w3.org/2000/svg">
<path d="M16 1.00012V11C16 11.5675 15.5675 12 15 12H14V2.9246L8 7.23455L2 2.9246V12H1C0.4325 12 0 11.5675 0 11V1.00012C0 0.716128 0.107 0.466131 0.2865 0.289133C0.379935 0.195528 0.491264 0.121698 0.613848 0.0720467C0.736432 0.0223952 0.86776 -0.00206129 1 0.000135952H1.3335L8 4.83358L14.6665 0.000135952H15C15.284 0.000135952 15.534 0.107135 15.7135 0.289133C15.893 0.466131 16 0.716128 16 1.00012Z" fill="#FF8800"/>
</svg>
