<svg width="16" height="16" viewBox="0 0 16 16" fill="none" xmlns="http://www.w3.org/2000/svg">
<path d="M6.97602 0.0655344C4.42907 0.361128 2.11227 2.98078 2.00752 6.04096C1.94167 7.90942 2.28448 8.63506 3.99492 9.02867C4.73715 7.66738 4.14755 8.02166 3.99492 7.03686C3.36791 3.00123 8.27967 0.235769 10.9508 3.05325C12.7989 5.00417 11.9443 10.6484 8.96341 10.0246C6.10821 9.42872 10.2488 4.98727 7.96972 4.04915C6.11712 3.28683 5.1039 6.49568 5.98232 8.03277C5.46754 10.676 4.53968 12.6847 4.98862 16C6.44465 14.9016 6.57347 13.2141 6.97602 11.0205C7.70777 11.4825 8.02964 11.9417 8.96341 12.0164C12.4067 12.2933 14.4018 7.60095 13.9319 4.04915C13.5144 0.900297 10.1949 -0.307847 6.97602 0.0655344Z" fill="#5F6C72"/>
</svg>
