<svg width="16" height="16" viewBox="0 0 16 16" fill="none" xmlns="http://www.w3.org/2000/svg">
<path d="M5 14C11.038 14 14 9.33667 14 5C14 4.85798 14.0064 4.14079 14 4C14.6425 3.53522 15.5595 3.65918 16 3C15.4118 3.26143 14.664 2.92067 14 3C14.6778 2.59372 15.7545 1.76616 16 1C15.3556 1.38217 13.7351 1.85496 13 2C12.401 1.36209 11.9443 1 11 1C9.18719 1 8 2.18835 8 4C8 4.25756 7.94367 4.7597 8 5C5.27171 4.86275 2.61909 3.98572 1 2C0.708387 2.50084 0.999491 2.42054 1 3C1 4.13861 1.1187 5.41194 2 6C1.4787 5.98408 1.45554 6.25379 1 6C0.999512 6.01378 1 5.98528 1 6C1 7.58935 1.49795 8.69931 3 9C2.7179 9.07681 2.29239 9.00017 2 9C1.78885 9 2.2 9.03838 2 9C2.41792 10.304 3.56322 10.9735 5 11C3.87646 11.8804 2.53824 13 1 13C0.738325 13.0002 0.259888 13.0305 0 13C1.45281 13.931 3.14589 14 5 14Z" fill="#5F6C72"/>
</svg>
