<svg width="24" height="24" viewBox="0 0 24 24" fill="none" xmlns="http://www.w3.org/2000/svg">
<g clip-path="url(#clip0_1184_3559)">
<path d="M21.3334 0H2.66666C1.2 0 0 1.2 0 2.66666V21.3334C0 22.8013 1.2 24 2.66666 24H12V14.6666H9.33334V11.3666H12V8.63334C12 5.748 13.616 3.72133 17.0213 3.72133L19.4254 3.724V7.19734H17.8294C16.504 7.19734 16 8.192 16 9.11467V11.368H19.424L18.6667 14.6666H16V24H21.3334C22.8 24 24 22.8013 24 21.3334V2.66666C24 1.2 22.8 0 21.3334 0Z" fill="#282828"/>
</g>
<defs>
<clipPath id="clip0_1184_3559">
<rect width="24" height="24" fill="white"/>
</clipPath>
</defs>
</svg>
