<svg width="24" height="24" viewBox="0 0 24 24" fill="none" xmlns="http://www.w3.org/2000/svg">
<g clip-path="url(#clip0_1184_3554)">
<path d="M16.6667 0H7.33333C5.38841 0 3.52315 0.772617 2.14788 2.14788C0.772617 3.52315 0 5.38841 0 7.33333V16.6667C0 18.6116 0.772617 20.4768 2.14788 21.8521C3.52315 23.2274 5.38841 24 7.33333 24H16.6667C18.6116 24 20.4768 23.2274 21.8521 21.8521C23.2274 20.4768 24 18.6116 24 16.6667V7.33333C24 5.38841 23.2274 3.52315 21.8521 2.14788C20.4768 0.772617 18.6116 0 16.6667 0ZM22 16.6667C21.9984 18.0806 21.4359 19.4363 20.4361 20.4361C19.4363 21.4359 18.0806 21.9984 16.6667 22H7.33333C5.91934 21.9984 4.56371 21.4359 3.56387 20.4361C2.56402 19.4363 2.0016 18.0806 2 16.6667V7.33333C2.00159 5.91934 2.564 4.5637 3.56385 3.56385C4.5637 2.564 5.91934 2.00159 7.33333 2H16.6667C18.0806 2.00159 19.4363 2.564 20.4361 3.56385C21.436 4.5637 21.9984 5.91934 22 7.33333V16.6667Z" fill="#282828"/>
<path d="M12 6C10.8133 6 9.65328 6.3519 8.66659 7.01119C7.67989 7.67047 6.91086 8.60755 6.45673 9.70391C6.0026 10.8003 5.88378 12.0067 6.11529 13.1706C6.3468 14.3345 6.91825 15.4035 7.75737 16.2427C8.59648 17.0818 9.66558 17.6532 10.8295 17.8847C11.9933 18.1162 13.1998 17.9974 14.2961 17.5433C15.3925 17.0892 16.3295 16.3201 16.9888 15.3334C17.6481 14.3468 18 13.1867 18 12C18 10.4087 17.3678 8.88258 16.2427 7.75736C15.1174 6.63214 13.5913 6 12 6ZM12 16.0001C11.2089 16.0001 10.4355 15.7654 9.77772 15.3259C9.11993 14.8863 8.60724 14.2617 8.30448 13.5308C8.00173 12.7999 7.92252 11.9955 8.07687 11.2197C8.23121 10.4437 8.61216 9.73099 9.17158 9.17157C9.73099 8.61217 10.4437 8.23121 11.2197 8.07687C11.9955 7.92252 12.7999 8.00174 13.5308 8.30449C14.2617 8.60723 14.8863 9.11993 15.3259 9.77773C15.7654 10.4355 16 11.2089 16 12C15.9988 13.0605 15.577 14.0772 14.8271 14.8271C14.0772 15.577 13.0605 15.9989 12 16.0001Z" fill="#282828"/>
<path d="M17 6C17.5523 6 18 5.55228 18 5C18 4.44771 17.5523 4 17 4C16.4477 4 16 4.44771 16 5C16 5.55228 16.4477 6 17 6Z" fill="#282828"/>
</g>
<defs>
<clipPath id="clip0_1184_3554">
<rect width="24" height="24" fill="white"/>
</clipPath>
</defs>
</svg>
