<svg width="19" height="18" viewBox="0 0 19 18" fill="none" xmlns="http://www.w3.org/2000/svg">
<path d="M0.84964 2.31507C0.84964 1.73786 1.05235 1.26167 1.45775 0.886501C1.86315 0.511315 2.39019 0.32373 3.03883 0.32373C3.6759 0.32373 4.19133 0.508423 4.58516 0.877843C4.99056 1.2588 5.19327 1.75518 5.19327 2.36702C5.19327 2.92113 4.99636 3.38288 4.60254 3.7523C4.19714 4.13325 3.66431 4.32373 3.00408 4.32373H2.98671C2.34963 4.32373 1.8342 4.13325 1.44037 3.7523C1.04655 3.37135 0.84964 2.89227 0.84964 2.31507ZM1.07551 17.4666V5.89949H4.93265V17.4666H1.07551ZM7.06972 17.4666H10.9269V11.0077C10.9269 10.6037 10.9732 10.292 11.0659 10.0726C11.228 9.68014 11.4742 9.34825 11.8043 9.07697C12.1344 8.80568 12.5485 8.67005 13.0466 8.67005C14.3439 8.67005 14.9925 9.54161 14.9925 11.2848V17.4666H18.8496V10.8345C18.8496 9.12603 18.4442 7.83022 17.6334 6.9471C16.8226 6.06399 15.7512 5.62243 14.4191 5.62243C12.9249 5.62243 11.7608 6.26312 10.9269 7.54451V7.57914H10.9095L10.9269 7.54451V5.89949H7.06972C7.09288 6.26889 7.10447 7.41751 7.10447 9.34537C7.10447 11.2732 7.09288 13.9803 7.06972 17.4666Z" fill="#080808"/>
</svg>
