<svg width="23" height="20" viewBox="0 0 23 20" fill="none" xmlns="http://www.w3.org/2000/svg">
<path d="M0 1.25C0 0.559644 0.559644 0 1.25 0H21.75C22.4404 0 23 0.559644 23 1.25C23 1.94036 22.4404 2.5 21.75 2.5H1.25C0.559644 2.5 0 1.94036 0 1.25ZM0 10C0 9.30964 0.559644 8.75 1.25 8.75H21.75C22.4404 8.75 23 9.30964 23 10C23 10.6904 22.4404 11.25 21.75 11.25H1.25C0.559644 11.25 0 10.6904 0 10ZM0 18.75C0 18.0596 0.559644 17.5 1.25 17.5H21.75C22.4404 17.5 23 18.0596 23 18.75C23 19.4404 22.4404 20 21.75 20H1.25C0.559644 20 0 19.4404 0 18.75Z" fill="#2A2F3C"/>
</svg>
